mtllib ./pine.mtl

g s.0113
usemap StandardF2FF3D
usemtl StandardF2FF3D



usemap StandardF2FF3D
usemtl StandardF2FF3D

g s.0116
usemap Standard679C17
usemtl Standard679C17
v -145.1484 -226.0822 -191.5079
v -143.2734 -278.8643 -203.777
v -130.1487 -182.7037 -182.0108
v -152.8779 -188.2268 -173.6157
v -137.1304 -190.1823 -165.1258

vn -0.4731841 0.1965608 -0.8587552
vn -0.02250031 -0.9548779 -0.2961451
vn 0.5921616 0.7170579 -0.3676584
vn -0.8662211 0.4787505 0.1430346
vn 0.2912504 0.2356492 0.9271691

vt 0.8936945 0.7304677
vt 1 0.4174423
vt 0.1548768 -5.960464E-08
vt 0.09662914 0.9999999
vt 0 0.3585072

usemap Standard679C17
usemtl Standard679C17
f 3/3/3 2/2/2 1/1/1 
f 4/4/4 3/3/3 1/1/1 
f 5/5/5 4/4/4 2/2/2 
f 5/5/5 2/2/2 3/3/3 
f 4/4/4 5/5/5 3/3/3 
f 2/2/2 4/4/4 1/1/1 

g s.0117
usemap StandardF2FF3D
usemtl StandardF2FF3D
v -133.7361 -161.3427 -110.4641
v -148.6076 -185.6998 -115.293
v -170.7637 -89.74933 -44.67548
v -106.3464 -23.96538 -183.9902
v -107.6041 5.31102 -132.5987
v -112.0047 39.68335 -136.8213
v -139.4415 -63.54607 -68.23142
v -138.0286 20.99869 -51.66656
v -129.1958 -5.23584 -71.76218
v -127.9609 -176.4138 -164.5027
v -115.9757 -148.7433 -161.5566
v -110.8187 -137.4653 -187.2933
v -110.2661 -64.29656 -186.61
v -148.2684 -85.77097 -64.84197

vn 0.7821077 -0.3737511 0.4986159
vn -0.3521421 -0.9195306 0.1745266
vn -0.573912 -0.2013925 0.793767
vn 0.2182659 0.3458311 -0.9125573
vn 0.9838921 0.04599083 0.1727463
vn 0.1287356 0.9426202 -0.3080493
vn 0.79708 -0.1519003 0.5844569
vn -0.1092698 0.7098726 0.6958023
vn 0.9099196 -0.05809882 0.4106957
vn -0.04051046 -0.8391303 -0.5424197
vn 0.9512011 -0.2610479 0.1645309
vn 0.36505 -0.2699297 -0.8909975
vn -0.3124145 0.07260568 -0.9471672
vn 0.7096786 -0.2187584 0.6697022

vt 0.007360071 0.9763029
vt 0.1890182 0.9531955
vt 0.0310868 0.574151
vt 0.5055108 0.3087022
vt 0.609174 0.1048144
vt 0.5715373 0.0706242
vt 0.979797 0.4557265
vt 0.9711936 0.2020084
vt 0.9490277 0.1963573
vt 0.4627901 0.8633293
vt 0.5033392 0.8250487
vt 0.4956476 0.7323799
vt 0.4959939 0.4661077
vt 0.002441883 0.5856639

usemap StandardF2FF3D
usemtl StandardF2FF3D
f 8/8/8 7/7/7 6/6/6 
f 11/11/11 10/10/10 9/9/9 
f 13/13/13 8/8/8 12/12/12 
f 6/6/6 14/14/14 12/12/12 
f 11/11/11 8/8/8 13/13/13 
f 16/16/16 6/6/6 15/15/15 
f 6/6/6 7/7/7 15/15/15 
f 14/14/14 13/13/13 12/12/12 
f 7/7/7 8/8/8 15/15/15 
f 14/14/14 6/6/6 10/10/10 
f 17/17/17 16/16/16 15/15/15 
f 18/18/18 17/17/17 15/15/15 
f 8/8/8 18/18/18 15/15/15 
f 11/11/11 13/13/13 10/10/10 
f 13/13/13 14/14/14 10/10/10 
f 16/16/16 17/17/17 10/10/10 
f 6/6/6 16/16/16 10/10/10 
f 8/8/8 11/11/11 9/9/9 
f 18/18/18 8/8/8 9/9/9 
f 17/17/17 18/18/18 9/9/9 
f 10/10/10 17/17/17 9/9/9 
f 8/8/8 6/6/6 19/19/19 
f 12/12/12 8/8/8 19/19/19 
f 6/6/6 12/12/12 19/19/19 

g s.0118
usemap Standard679C17
usemtl Standard679C17
v -140.9732 -197.3491 -148.2509
v -148.7709 -191.891 -159.7808
v -136.6357 -193.6503 -165.3414
v -177.5234 -255.5829 -210.4081
v -183.8132 -264.1153 -218.5775

vn 0.2763712 0.0418996 0.9601372
vn -0.5821324 0.80348 0.1246667
vn 0.8048019 0.466188 -0.3673728
vn 0.759865 -0.643791 0.09021236
vn -0.4223156 -0.6800534 -0.5993137

vt 5.960464E-08 0.3106098
vt 0.1102962 0.4717411
vt 0.133315 0
vt 1 0.9842511
vt 0.9965564 1

usemap Standard679C17
usemtl Standard679C17
f 22/22/22 21/21/21 20/20/20 
f 24/24/24 22/22/22 23/23/23 
f 20/20/20 24/24/24 23/23/23 
f 22/22/22 20/20/20 23/23/23 
f 21/21/21 22/22/22 24/24/24 
f 21/21/21 24/24/24 20/20/20 

g s.0119
usemap StandardA09219
usemtl StandardA09219
v -202.8629 -59.23405 -98.76607
v -216.7054 -46.5648 -59.62376
v -180.8427 -73.87891 -55.25319
v -167.3533 -23.12565 -49.91857
v -204.8525 -14.37854 -94.44112

vn -0.1391166 -0.5197688 -0.8429038
vn -0.8628665 -0.06282447 0.5015123
vn 0.3985411 -0.8360476 0.37708
vn 0.6983935 0.5255824 0.4858083
vn -0.2154232 0.7786467 -0.5893235

vt 0.5846989 0.4098166
vt 1 1
vt 0.889165 0.1814623
vt 0 0
vt 0.3173867 0.4420809

usemap StandardA09219
usemtl StandardA09219
f 27/27/27 26/26/26 25/25/25 
f 28/28/28 27/27/27 25/25/25 
f 26/26/26 28/28/28 29/29/29 
f 28/28/28 26/26/26 27/27/27 
f 29/29/29 28/28/28 25/25/25 
f 26/26/26 29/29/29 25/25/25 

g s.0120
usemap StandardA09219
usemtl StandardA09219
v -160.2423 -189.3119 -104.7577
v -181.9693 -183.2541 -132.9949
v -154.1471 -197.2281 -125.8439
v -171.5063 -200.9691 -116.0563

vn 0.3487156 0.2973329 0.8888142
vn -0.6699262 0.4552478 -0.5864711
vn 0.8324138 -0.2688509 -0.4845684
vn -0.5052812 -0.8106235 0.2959399

vt -5.960464E-08 0.5032039
vt 0.4921135 1
vt 0.7985389 0
vt 1 0.9122385

usemap StandardA09219
usemtl StandardA09219
f 32/32/32 31/31/31 30/30/30 
f 32/32/32 30/30/30 33/33/33 
f 31/31/31 32/32/32 33/33/33 
f 30/30/30 31/31/31 33/33/33 

g s.0121
usemap Standard81EC3E
usemtl Standard81EC3E
v -134.0306 -194.3331 -165.0087
v -162.223 -327.9366 -231.8441
v -135.5903 -206.1016 -153.101
v -146.1793 -200.4626 -167.8885

vn 0.4889374 0.8705623 -0.05533023
vn -0.1595721 -0.8659783 -0.4739391
vn 0.2791685 -0.01671089 0.9600967
vn -0.8014859 0.5701776 -0.1803272

vt 0.01131204 0.9999996
vt 1 -3.576279E-07
vt 0.1100247 0.8231178
vt 0 0.1783886

usemap Standard81EC3E
usemtl Standard81EC3E
f 36/36/36 35/35/35 34/34/34 
f 35/35/35 36/36/36 37/37/37 
f 34/34/34 35/35/35 37/37/37 
f 36/36/36 34/34/34 37/37/37 

g s.0122
usemap StandardA09219
usemtl StandardA09219
v -180.406 -92.88238 -51.65705
v -204.4497 -139.5843 -81.84818
v -204.9984 -80.79301 -101.3783
v -165.5182 -176.6383 -103.0094
v -187.1108 -170.2253 -130.3148
v -203.2407 -139.743 -81.47815

vn 0.2826771 0.5435795 0.7903259
vn -0.8364275 -0.3735708 0.4010411
vn -0.312354 0.8697253 -0.3821163
vn 0.6384093 -0.7683226 0.04597854
vn -0.105187 -0.5346082 -0.8385284
vn -0.2191899 -0.5527117 0.8040308

vt -5.960464E-08 0.3252616
vt 0.9947846 1
vt 0.2322566 0.5627366
vt 0.8257689 5.960464E-08
vt 0.6993932 0.2465637
vt 1 0.9634793

usemap StandardA09219
usemtl StandardA09219
f 40/40/40 39/39/39 38/38/38 
f 42/42/42 40/40/40 41/41/41 
f 39/39/39 42/42/42 41/41/41 
f 40/40/40 38/38/38 41/41/41 
f 38/38/38 39/39/39 43/43/43 
f 41/41/41 38/38/38 43/43/43 
f 39/39/39 41/41/41 43/43/43 
f 39/39/39 40/40/40 42/42/42 

g s.0123
usemap StandardA09219
usemtl StandardA09219
v -126.3009 -158.3365 -193.9838
v -118.6948 -70.69485 -198.5654
v -147.1091 -118.9112 -210.8483
v -166.3983 -64.59878 -185.7007
v -151.8195 -157.5712 -185.6308

vn 0.6112177 -0.7914416 0.00575636
vn 0.7048509 0.7055728 -0.0731591
vn -0.2986173 -0.1171971 -0.9471498
vn -0.5893873 0.7650146 0.2595671
vn -0.4827566 -0.7902733 0.377378

vt 0.9741052 0.2205497
vt 0.0350152 0
vt 0.6496485 0.6222844
vt 0 1
vt 1 0.713082

usemap StandardA09219
usemtl StandardA09219
f 46/46/46 45/45/45 44/44/44 
f 45/45/45 46/46/46 47/47/47 
f 44/44/44 45/45/45 48/48/48 
f 46/46/46 44/44/44 48/48/48 
f 47/47/47 46/46/46 48/48/48 
f 45/45/45 47/47/47 48/48/48 

g s.0124
usemap Standard81EC3E
usemtl Standard81EC3E
v -188.9707 -316.8064 -232.6639
v -137.0009 -195.1054 -160.0466
v -153.2406 -196.2328 -155.6434
v -191.5443 -324.2146 -235.7402
v -138.8374 -201.11 -151.0805

vn 0.01801669 0.3855707 -0.9225023
vn 0.6784081 0.6848658 -0.2659346
vn -0.731406 0.6100277 0.3048137
vn -0.3017724 -0.8289585 -0.4709153
vn 0.5233012 -0.0231148 0.8518342

vt 0.9956599 0.9965208
vt 0.06229475 0
vt 0.04762128 0.5093251
vt 1 1
vt -5.960464E-08 0.08733159

usemap Standard81EC3E
usemtl Standard81EC3E
f 51/51/51 50/50/50 49/49/49 
f 53/53/53 51/51/51 52/52/52 
f 53/53/53 52/52/52 50/50/50 
f 51/51/51 53/53/53 50/50/50 
f 52/52/52 51/51/51 49/49/49 
f 50/50/50 52/52/52 49/49/49 

g s.0125
usemap Standard81EC3E
usemtl Standard81EC3E
v -146.4706 -200.9524 -134.8163
v -137.5516 -199.2783 -154.4222
v -199.4087 -312.067 -187.5114
v -158.1219 -196.4719 -149.7618

vn 0.254103 0.2586963 0.9319377
vn 0.8299468 0.40172 -0.3870522
vn -0.3958156 -0.863172 -0.3134713
vn -0.6233094 0.7736648 -0.1137025

vt 0 0.3032061
vt 0.1269463 -5.960464E-08
vt 1 0.9999999
vt 0.1180502 0.512736

usemap Standard81EC3E
usemtl Standard81EC3E
f 56/56/56 55/55/55 54/54/54 
f 57/57/57 56/56/56 54/54/54 
f 55/55/55 57/57/57 54/54/54 
f 57/57/57 55/55/55 56/56/56 

g s.0126
usemap StandardA09219
usemtl StandardA09219
v -195.6134 44.06114 -121.1983
v -147.1957 51.32297 -136.6715
v -163.181 38.01782 -86.60915
v -194.2984 43.97628 -123.0015
v -173.9266 15.91699 -147.1287
v -193.5648 9.724193 -104.6005

vn -0.8316428 0.5552142 -0.01036796
vn 0.7569668 0.5032207 -0.4168573
vn 0.3982971 0.148727 0.9051186
vn -0.5919676 0.5580911 -0.5814711
vn 0.05665116 -0.5832759 -0.8102962
vn -0.507392 -0.7533386 0.4183711

vt 0.367301 1
vt 0.4013099 0
vt -5.960464E-08 0.3827772
vt 0.3894716 0.9698524
vt 0.7027899 0.3944034
vt 1 0.8250086

usemap StandardA09219
usemtl StandardA09219
f 60/60/60 59/59/59 58/58/58 
f 59/59/59 62/62/62 61/61/61 
f 58/58/58 59/59/59 61/61/61 
f 62/62/62 58/58/58 61/61/61 
f 62/62/62 60/60/60 63/63/63 
f 60/60/60 62/62/62 59/59/59 
f 63/63/63 60/60/60 58/58/58 
f 62/62/62 63/63/63 58/58/58 

g s.0127
usemap StandardA09219
usemtl StandardA09219
v -136.8403 50.39002 -149.8069
v -143.2185 44.01987 -182.0143
v -121.9511 26.00699 -164.0388
v -143.8658 21.15924 -160.0569

vn -0.01828499 0.725463 0.6880182
vn -0.3131638 0.4061906 -0.8584507
vn 0.8859735 -0.4622171 -0.0375009
vn -0.5362744 -0.8083079 0.2429981

vt 5.960464E-08 0.7584372
vt 0.467712 0.8000219
vt 1 2.980232E-08
vt 0.9900723 1

usemap StandardA09219
usemtl StandardA09219
f 66/66/66 65/65/65 64/64/64 
f 66/66/66 64/64/64 67/67/67 
f 65/65/65 66/66/66 67/67/67 
f 64/64/64 65/65/65 67/67/67 

g s.0128
usemap StandardCEC91B
usemtl StandardCEC91B
v -115.6253 -171.9147 -190.3248
v -105.1623 -58.06541 -205.4112
v -169.6925 -170.928 -181.659
v -175.3806 -9.825661 -40.44795
v -172.699 -93.32045 -40.23532
v -210.56 -6.314699 -102.5868
v -136.8262 -200.3216 -166.8661
v -108.3682 49.72913 -144.6111
v -117.2955 20.87933 -176.291
v -169.019 47.15363 -65.03245
v -150.7468 -205.1251 -130.509
v -182.6428 7.590097 -160.1366
v -178.3087 -54.09688 -182.2439
v -156.3694 -191.1606 -100.1858
v -125.5752 44.69527 -93.79507
v -140.7341 29.08448 -42.01938
v -137.6119 61.54396 -143.8137
v -188.4101 -178.3924 -139.1947
v -207.8489 -68.53983 -109.8816

vn 0.6894102 -0.4366092 -0.5780017
vn 0.6292626 0.06551897 -0.7744262
vn -0.5710331 -0.3817754 -0.7267521
vn -0.5129461 0.1201118 0.8499762
vn -0.1198817 -0.3366363 0.9339724
vn -0.9637904 0.2633818 0.04169133
vn 0.3105475 -0.9080923 -0.2809421
vn 0.8015542 0.5821212 -0.1365496
vn 0.2786416 0.4622694 -0.8418229
vn -0.426091 0.8107162 0.4014795
vn 0.1830197 -0.9637752 0.1940134
vn -0.6739658 0.4250659 -0.6042261
vn -0.6469226 0.08689657 -0.7575883
vn 0.1339937 -0.7038802 0.697566
vn 0.6611073 0.6659279 0.3456546
vn 0.4488104 0.3943189 0.8019238
vn -0.1282691 0.9366366 -0.3259739
vn -0.8604523 -0.5064301 -0.05612916
vn -0.9939863 -0.1065722 0.0251702

vt 0.6777008 0.1544691
vt 0.4569888 -5.960464E-08
vt 0.6774722 0.3593456
vt 2.980232E-08 0.4950514
vt 1 0.4991567
vt 0.1358573 0.7050559
vt 0.7192774 0.2542731
vt 0.2002107 0.1511012
vt 0.2700239 0.1343505
vt 0.09297967 0.4270795
vt 0.7647852 0.3187321
vt 0.2722112 0.4675421
vt 0.4423762 0.4546416
vt 0.8067592 0.3552626
vt 0.1224511 0.2444614
vt 0.04500023 0.3366422
vt 0.2040963 0.2678287
vt 0.7403226 0.4602453
vt 0.97819 1

usemap StandardCEC91B
usemtl StandardCEC91B
f 70/70/70 69/69/69 68/68/68 
f 73/73/73 72/72/72 71/71/71 
f 74/74/74 70/70/70 68/68/68 
f 69/69/69 76/76/76 75/75/75 
f 77/77/77 73/73/73 71/71/71 
f 78/78/78 74/74/74 68/68/68 
f 76/76/76 80/80/80 79/79/79 
f 81/81/81 78/78/78 68/68/68 
f 69/69/69 75/75/75 68/68/68 
f 83/83/83 75/75/75 82/82/82 
f 83/83/83 81/81/81 68/68/68 
f 75/75/75 76/76/76 84/84/84 
f 74/74/74 85/85/85 70/70/70 
f 75/75/75 83/83/83 68/68/68 
f 82/82/82 75/75/75 84/84/84 
f 72/72/72 86/86/86 85/85/85 
f 77/77/77 82/82/82 84/84/84 
f 86/86/86 72/72/72 73/73/73 
f 73/73/73 77/77/77 84/84/84 
f 86/86/86 80/80/80 85/85/85 
f 79/79/79 73/73/73 84/84/84 
f 83/83/83 72/72/72 81/81/81 
f 85/85/85 80/80/80 70/70/70 
f 79/79/79 80/80/80 73/73/73 
f 76/76/76 79/79/79 84/84/84 
f 85/85/85 74/74/74 78/78/78 
f 80/80/80 86/86/86 73/73/73 
f 77/77/77 83/83/83 82/82/82 
f 80/80/80 69/69/69 70/70/70 
f 83/83/83 77/77/77 71/71/71 
f 80/80/80 76/76/76 69/69/69 
f 72/72/72 83/83/83 71/71/71 
f 72/72/72 85/85/85 81/81/81 
f 81/81/81 85/85/85 78/78/78 

g s.0129
usemap StandardA09219
usemtl StandardA09219
v -164.7621 -175.2456 -179.0292
v -146.3865 -186.2054 -190.719
v -121.6313 -176.0598 -186.6384
v -136.2685 -189.6387 -176.4102

vn -0.9245121 0.3232945 0.2018858
vn -0.2926318 -0.4565207 -0.8402115
vn 0.9200184 0.3497436 -0.1767643
vn 0.3245079 -0.6754718 0.6621423

vt 0 1
vt 0.5516747 0.6077296
vt 0.03647825 0
vt 1 0.3389701

usemap StandardA09219
usemtl StandardA09219
f 89/89/89 88/88/88 87/87/87 
f 88/88/88 89/89/89 90/90/90 
f 87/87/87 88/88/88 90/90/90 
f 89/89/89 87/87/87 90/90/90 

g s.0130
usemap Standard679C17
usemtl Standard679C17
v -213.5877 -268.0176 -178.4061
v -148.3841 -198.0369 -146.5644
v -140.5763 -195.7098 -164.2471
v -214.3609 -269.2527 -181.4137
v -161.6015 -185.9735 -158.5159

vn -0.5320376 -0.591042 0.6063046
vn 0.4309033 0.0458172 0.9012342
vn 0.8811921 0.2038422 -0.4265547
vn -0.5301697 -0.6910335 -0.4913173
vn -0.3974627 0.9174747 -0.01623249

vt 1 1
vt -5.960464E-08 0.1947337
vt 0.1687375 0
vt 0.9876678 0.9897853
vt 0.1603428 0.4143314

usemap Standard679C17
usemtl Standard679C17
f 93/93/93 92/92/92 91/91/91 
f 94/94/94 93/93/93 91/91/91 
f 94/94/94 95/95/95 93/93/93 
f 95/95/95 92/92/92 93/93/93 
f 95/95/95 94/94/94 91/91/91 
f 92/92/92 95/95/95 91/91/91 

g s.0131
usemap Standard81EC3E
usemtl Standard81EC3E
v -154.3853 -202.4119 -139.7744
v -138.6794 -205.4742 -149.1978
v -144.4256 -207.8583 -123.3356
v -183.491 -358.6733 -121.3129

vn -0.6354331 0.7478049 -0.1923867
vn 0.5841318 0.4102837 -0.7003267
vn 0.2903059 0.4196442 0.8600123
vn -0.2371694 -0.9662569 0.1004899

vt 0.04449102 0.520708
vt 5.960464E-08 0.9999999
vt 0.1504474 0.7748357
vt 1 -5.960464E-08

usemap Standard81EC3E
usemtl Standard81EC3E
f 98/98/98 97/97/97 96/96/96 
f 97/97/97 98/98/98 99/99/99 
f 99/99/99 98/98/98 96/96/96 
f 97/97/97 99/99/99 96/96/96 

g s.0132
usemap Standard679C17
usemtl Standard679C17
v -166.2039 -186.3748 -147.6538
v -146.2029 -193.714 -144.3861
v -150.94 -195.8207 -127.4105
v -196.1368 -287.3261 -155.2694
v -199.4839 -291.6591 -154.1403

vn -0.4904864 0.7982057 -0.349701
vn 0.8661731 0.3332303 -0.3724269
vn 0.3561964 0.2473917 0.9010668
vn 0.4270535 -0.467867 -0.7737737
vn -0.4593246 -0.8876731 -0.03251618

vt 0.1854523 0.5214348
vt 0.1365064 0
vt 5.960464E-08 0.1967358
vt 0.9933646 0.9771193
vt 1 1

usemap Standard679C17
usemtl Standard679C17
f 102/102/102 101/101/101 100/100/100 
f 102/102/102 104/104/104 103/103/103 
f 101/101/101 102/102/102 103/103/103 
f 100/100/100 101/101/101 103/103/103 
f 104/104/104 100/100/100 103/103/103 
f 104/104/104 102/102/102 100/100/100 

g s.0133
usemap StandardA09219
usemtl StandardA09219
v -141.1251 -199.7579 -165.513
v -164.9479 -177.4507 -178.6549
v -181.325 -197.4103 -163.4123
v -152.9854 -201.8029 -134.6472
v -184.3918 -180.3099 -139.1196

vn 0.9007811 -0.2961108 -0.3176662
vn 0.07177316 0.6091686 -0.7897862
vn -0.7501213 -0.5461067 -0.3729418
vn 0.467979 -0.3552086 0.8092111
vn -0.6035455 0.4638254 0.648536

vt 0.6604539 2.980232E-08
vt 0.367402 0.5058342
vt 0.5814795 1
vt 1 0.4110456
vt -5.960464E-08 0.9912122

usemap StandardA09219
usemtl StandardA09219
f 107/107/107 106/106/106 105/105/105 
f 105/105/105 106/106/106 108/108/108 
f 107/107/107 105/105/105 108/108/108 
f 109/109/109 107/107/107 108/108/108 
f 106/106/106 109/109/109 108/108/108 
f 106/106/106 107/107/107 109/109/109 

g s.0134
usemap StandardA09219
usemtl StandardA09219
v -193.3851 -143.9982 -174.9239
v -176.5893 -112.0764 -174.7296
v -184.8504 -158.6544 -149.0226
v -194.4923 -144.984 -176.5377
v -173.0211 -153.4976 -173.7036

vn -0.8350609 0.3714874 0.405796
vn 0.1969349 0.9672457 -0.1601638
vn -0.1036791 -0.5517692 0.8275272
vn -0.8204057 -0.150136 -0.5517188
vn 0.6943663 -0.5821387 -0.4230484

vt 0.4516952 1
vt -5.960464E-08 0.2981224
vt 1 0.5777445
vt 0.4611622 0.9587853
vt 0.6995526 0

usemap StandardA09219
usemtl StandardA09219
f 112/112/112 111/111/111 110/110/110 
f 113/113/113 112/112/112 110/110/110 
f 114/114/114 113/113/113 111/111/111 
f 114/114/114 111/111/111 112/112/112 
f 113/113/113 114/114/114 112/112/112 
f 111/111/111 113/113/113 110/110/110 

g s.0135
usemap Standard679C17
usemtl Standard679C17
v -176.6887 -275.5905 -120.2381
v -157.0563 -204.6373 -146.3679
v -164.3491 -201.3865 -122.5742
v -147.1515 -208.1977 -133.2581

vn -0.2735239 -0.9444647 0.1821293
vn -0.01095853 0.4500037 -0.8929595
vn -0.3837906 0.6915733 0.6119078
vn 0.9706925 0.2268703 0.07928383

vt 1 0.9999999
vt 0.2482459 0.4161735
vt 0 0.8133329
vt 0.09179756 -5.960464E-08

usemap Standard679C17
usemtl Standard679C17
f 117/117/117 116/116/116 115/115/115 
f 115/115/115 116/116/116 118/118/118 
f 117/117/117 115/115/115 118/118/118 
f 116/116/116 117/117/117 118/118/118 

g s.0136
usemap StandardA09219
usemtl StandardA09219
v -183.0325 -51.00432 -174.3612
v -204.8197 -59.79721 -121.8526
v -186.6621 -0.1797104 -154.3017
v -205.4803 -12.23109 -109.9815
v -222.789 -25.15862 -146.6352

vn 0.4595701 -0.5042911 -0.7310853
vn -0.0258444 -0.8363696 0.5475562
vn 0.478454 0.8181972 -0.3188026
vn -0.02257228 0.4698648 0.8824497
vn -0.9441192 0.1428496 -0.2970405

vt 0.6764141 -5.960464E-08
vt 1 0.4456113
vt 0.2831895 0.06738544
vt 0 0.485068
vt 0.4236591 0.9999999

usemap StandardA09219
usemtl StandardA09219
f 121/121/121 120/120/120 119/119/119 
f 120/120/120 121/121/121 122/122/122 
f 119/119/119 120/120/120 123/123/123 
f 121/121/121 119/119/119 123/123/123 
f 122/122/122 121/121/121 123/123/123 
f 120/120/120 122/122/122 123/123/123 

g s.0137
usemap StandardA09219
usemtl StandardA09219
v -166.7372 37.77711 -62.48201
v -201.7775 -2.883718 -89.19171
v -176.1848 -14.29184 -51.74258
v -199.1465 19.92459 -49.856
v -197.0592 21.13044 -50.94839

vn 0.6048997 0.7957501 -0.0296316
vn -0.4630581 -0.3520852 -0.8133961
vn 0.3831488 -0.8272378 0.4109436
vn -0.6832945 0.3694499 0.629774
vn -0.5260718 0.8425565 -0.1155282

vt 0.1582732 0
vt 0.6362723 0.6954582
vt 1 0.2230042
vt -5.960464E-08 1
vt 0.02001858 0.9372154

usemap StandardA09219
usemtl StandardA09219
f 126/126/126 125/125/125 124/124/124 
f 127/127/127 126/126/126 124/124/124 
f 127/127/127 125/125/125 126/126/126 
f 125/125/125 127/127/127 128/128/128 
f 124/124/124 125/125/125 128/128/128 
f 127/127/127 124/124/124 128/128/128 

g s.0138
usemap StandardA09219
usemtl StandardA09219
v -173.0535 9.683862 -162.9426
v -169.44 -43.31976 -184.8302
v -154.0448 -3.538977 -212.5409
v -125.2351 11.89663 -175.073
v -118.6241 -41.86117 -194.6014

vn -0.6055308 0.4927022 0.6249616
vn -0.5902845 -0.7964218 0.1314402
vn -0.2093214 0.3420448 -0.9160731
vn 0.6882284 0.6293234 0.3609622
vn 0.7367904 -0.6656131 -0.1187394

vt 0 1
vt 1 0.9093683
vt 0.5054878 0.5614687
vt 0.04627281 0.133575
vt 0.9823635 -5.960464E-08

usemap StandardA09219
usemtl StandardA09219
f 131/131/131 130/130/130 129/129/129 
f 132/132/132 131/131/131 129/129/129 
f 133/133/133 132/132/132 129/129/129 
f 131/131/131 133/133/133 130/130/130 
f 133/133/133 131/131/131 132/132/132 
f 130/130/130 133/133/133 129/129/129 

g s.0139
usemap StandardA09219
usemtl StandardA09219
v -216.213 -95.4623 -152.3701
v -189.0374 -140.6839 -142.5235
v -215.6818 -96.51607 -153.9393
v -176.7146 -67.20218 -175.9844
v -205.333 -82.6172 -122.5814

vn -0.9869529 0.1585752 -0.02789151
vn 0.2226319 -0.9683483 0.112857
vn -0.7892759 -0.1860524 -0.5851734
vn 0.4898915 0.6182266 -0.6146561
vn -0.1917041 0.4476972 0.8733938

vt 0.5475054 1
vt 1 0.2279163
vt 0.587098 0.9600683
vt 0.3926248 5.960464E-08
vt 2.980232E-08 0.5530639

usemap StandardA09219
usemtl StandardA09219
f 136/136/136 135/135/135 134/134/134 
f 137/137/137 136/136/136 134/134/134 
f 138/138/138 137/137/137 134/134/134 
f 137/137/137 138/138/138 135/135/135 
f 137/137/137 135/135/135 136/136/136 
f 135/135/135 138/138/138 134/134/134 
