mtllib ./star.mtl

g s.0038
usemap StandardF76AD6
usemtl StandardF76AD6
v 0.07203574 0.0352633 0.0429011
v 0.128346 0.4370213 -0.05867326
v -0.1610569 0.4714643 -0.2415264
v -0.2822055 0.5116407 -0.31113
v 0.3412838 0.4476898 0.1473544
v -0.4206732 0.5807034 -0.3122113
v 0.06648524 -1.788139E-07 0.0552476
v -0.3863659 0.557857 -0.3190577
v 0.196238 0.3142255 0.08444291
v 0.2660511 -0.1553964 0.2619979
v -0.02510481 -0.05106324 -0.01949906
v -0.2021526 -0.3455974 -0.002787471
v -0.2980052 -0.4549038 -0.002380669
v 0.07000042 0.2288982 0.00241673
v -0.4326721 -0.5161856 0.04293466
v 0.2909996 -0.1625005 0.2894546
v -0.3940363 -0.5080552 0.02926028
v 0.1031085 0.04845688 0.0980913
v 0.5152127 0.05122674 0.3932301
v 0.2872735 -0.2894958 0.310468
v 0.4288005 -0.4900348 0.5515689
v 0.4648097 -0.5870335 0.6536983
v 0.1086539 -0.1170021 0.1484656
v 0.4359826 -0.6591326 0.7875446
v 0.5329753 0.08342867 0.401849
v 0.4520844 -0.6422559 0.7528787
v 0.2684099 -0.09267306 0.2776747
v 0.4751875 0.3695867 0.2552392
v 0.6337845 0.0512296 0.4752244
v 0.8598466 0.2377596 0.6554412
v 0.9520547 0.2978506 0.750428
v 0.4038264 -0.1119885 0.3836664
v 0.9848393 0.3494106 0.8925928
v 0.4580102 0.3979216 0.2371056
v 0.9826859 0.3407159 0.8517814
v 0.4637013 0.0858725 0.3750148
v 0.2012892 0.3597207 0.03872401
v 0.5355619 0.5002418 0.2470825
v 0.4952946 0.8319987 0.1652813
v 0.490374 0.9768685 0.1541313
v 0.5475996 0.2370103 0.3829797
v 0.455397 1.115671 0.2129062
v 0.1697035 0.3463597 0.0228942
v 0.4644951 1.082426 0.1892881
v 0.4190966 0.3373497 0.255591

vn 0.5685085 -0.3351521 -0.751313
vn 0.6088751 0.2467628 -0.7539093
vn 0.4879597 -0.07843501 -0.8693349
vn 0.2095981 0.07984786 -0.9745219
vn 0.7967256 0.313035 0.5169501
vn -0.8230618 0.4968422 -0.2751672
vn 0.037048 -0.9619963 0.2705375
vn -0.1520797 -0.0331619 -0.9878117
vn -0.491813 0.1258101 0.8615636
vn 0.6537643 -0.3010104 -0.6942514
vn 0.1977049 -0.07293958 -0.9775441
vn 0.4062613 -0.3433259 -0.8468052
vn 0.1274935 -0.5325099 -0.8367667
vn 0.1506614 0.9642357 -0.2180611
vn -0.850764 -0.5238636 0.04204101
vn 0.7917568 -0.1251506 0.5978783
vn 0.01804853 -0.8034232 -0.5951348
vn -0.4468232 0.3521719 0.8223892
vn 0.669221 -0.1963693 -0.7166465
vn 0.2467943 -0.5958044 -0.7642707
vn 0.5765856 -0.4708598 -0.6677125
vn 0.574684 -0.7013189 -0.4217702
vn -0.6920455 0.2781006 -0.6661329
vn -0.0507182 -0.6764033 0.734783
vn 0.502285 0.8639244 0.03666255
vn 0.71743 -0.6930432 -0.07060622
vn -0.6048015 0.4318528 0.6691176
vn 0.5935179 -0.1658389 -0.7875493
vn 0.6883029 -0.5992501 -0.4088258
vn 0.7635503 -0.2847899 -0.5795563
vn 0.9331688 -0.1932909 -0.3030421
vn -0.5668015 -0.7971526 -0.2080472
vn 0.4714387 0.2500307 0.8457128
vn -0.4313256 0.63837 -0.6375281
vn 0.9795396 0.1454331 -0.1391091
vn -0.7474272 0.2547365 0.613565
vn 0.5312741 -0.2516116 -0.8089743
vn 0.9120811 -0.07851494 -0.402422
vn 0.7087766 -0.04225718 -0.7041662
vn 0.7075328 0.2894966 -0.6446619
vn 0.3533113 -0.7755634 0.5231371
vn -0.005894985 0.9751362 0.2215278
vn -0.7188612 -0.4901058 -0.4929857
vn 0.4421527 0.5532634 -0.7059748
vn -0.6775964 0.0655918 0.7325031

vt 0.4708564 0.7336125
vt 0.3731645 0.1623734
vt 0.006223768 0.4787821
vt 0.9918419 0.5084458
vt 0.4866242 0.2784513
vt 0.963595 0.5094106
vt 0.4750766 0.743735
vt 0.9714652 0.5128118
vt 0.4867749 0.4014187
vt 0.4708564 0.7336125
vt 0.3731645 0.1623734
vt 0.006223768 0.4787821
vt 0.9918419 0.5084458
vt 0.4866242 0.2784513
vt 0.963595 0.5094106
vt 0.4750766 0.743735
vt 0.9714652 0.5128118
vt 0.4867749 0.4014187
vt 0.4708564 0.7336125
vt 0.3731645 0.1623734
vt 0.006223768 0.4787821
vt 0.9918419 0.5084458
vt 0.4866242 0.2784513
vt 0.963595 0.5094106
vt 0.4750766 0.743735
vt 0.9714652 0.5128118
vt 0.4867749 0.4014187
vt 0.4708564 0.7336125
vt 0.3731645 0.1623734
vt 0.006223768 0.4787821
vt 0.9918419 0.5084458
vt 0.4866242 0.2784513
vt 0.963595 0.5094106
vt 0.4750766 0.743735
vt 0.9714652 0.5128118
vt 0.4867749 0.4014187
vt 0.4708564 0.7336125
vt 0.3731645 0.1623734
vt 0.006223768 0.4787821
vt 0.9918419 0.5084458
vt 0.4866242 0.2784513
vt 0.963595 0.5094106
vt 0.4750766 0.743735
vt 0.9714652 0.5128118
vt 0.4867749 0.4014187

usemap StandardF76AD6
usemtl StandardF76AD6
f 3/3/3 2/2/2 1/1/1 
f 6/6/6 5/5/5 4/4/4 
f 3/3/3 4/4/4 2/2/2 
f 3/3/3 7/7/7 4/4/4 
f 6/6/6 4/4/4 8/8/8 
f 4/4/4 7/7/7 8/8/8 
f 4/4/4 5/5/5 2/2/2 
f 7/7/7 6/6/6 8/8/8 
f 7/7/7 3/3/3 1/1/1 
f 5/5/5 7/7/7 1/1/1 
f 2/2/2 5/5/5 1/1/1 
f 6/6/6 7/7/7 9/9/9 
f 5/5/5 6/6/6 9/9/9 
f 7/7/7 5/5/5 9/9/9 
f 12/12/12 11/11/11 10/10/10 
f 15/15/15 14/14/14 13/13/13 
f 12/12/12 13/13/13 11/11/11 
f 12/12/12 16/16/16 13/13/13 
f 15/15/15 13/13/13 17/17/17 
f 13/13/13 16/16/16 17/17/17 
f 13/13/13 14/14/14 11/11/11 
f 16/16/16 15/15/15 17/17/17 
f 16/16/16 12/12/12 10/10/10 
f 14/14/14 16/16/16 10/10/10 
f 11/11/11 14/14/14 10/10/10 
f 15/15/15 16/16/16 18/18/18 
f 14/14/14 15/15/15 18/18/18 
f 16/16/16 14/14/14 18/18/18 
f 21/21/21 20/20/20 19/19/19 
f 24/24/24 23/23/23 22/22/22 
f 21/21/21 22/22/22 20/20/20 
f 21/21/21 25/25/25 22/22/22 
f 24/24/24 22/22/22 26/26/26 
f 22/22/22 25/25/25 26/26/26 
f 22/22/22 23/23/23 20/20/20 
f 25/25/25 24/24/24 26/26/26 
f 25/25/25 21/21/21 19/19/19 
f 23/23/23 25/25/25 19/19/19 
f 20/20/20 23/23/23 19/19/19 
f 24/24/24 25/25/25 27/27/27 
f 23/23/23 24/24/24 27/27/27 
f 25/25/25 23/23/23 27/27/27 
f 30/30/30 29/29/29 28/28/28 
f 33/33/33 32/32/32 31/31/31 
f 30/30/30 31/31/31 29/29/29 
f 30/30/30 34/34/34 31/31/31 
f 33/33/33 31/31/31 35/35/35 
f 31/31/31 34/34/34 35/35/35 
f 31/31/31 32/32/32 29/29/29 
f 34/34/34 33/33/33 35/35/35 
f 34/34/34 30/30/30 28/28/28 
f 32/32/32 34/34/34 28/28/28 
f 29/29/29 32/32/32 28/28/28 
f 33/33/33 34/34/34 36/36/36 
f 32/32/32 33/33/33 36/36/36 
f 34/34/34 32/32/32 36/36/36 
f 39/39/39 38/38/38 37/37/37 
f 42/42/42 41/41/41 40/40/40 
f 39/39/39 40/40/40 38/38/38 
f 39/39/39 43/43/43 40/40/40 
f 42/42/42 40/40/40 44/44/44 
f 40/40/40 43/43/43 44/44/44 
f 40/40/40 41/41/41 38/38/38 
f 43/43/43 42/42/42 44/44/44 
f 43/43/43 39/39/39 37/37/37 
f 41/41/41 43/43/43 37/37/37 
f 38/38/38 41/41/41 37/37/37 
f 42/42/42 43/43/43 45/45/45 
f 41/41/41 42/42/42 45/45/45 
f 43/43/43 41/41/41 45/45/45 

g s.0039
usemap StandardDA7E65
usemtl StandardDA7E65
v 0.3963987 0.1542912 0.2972175
v 0.2652504 0.1197543 0.2268114
v 0.420673 0.1822388 0.3190579
v 0.3406226 0.2762208 0.1623245
v 0.3477476 0.1720992 0.1802191
v 0.4003145 0.3551659 0.2208838
v 0.2727245 0.3222756 0.1071714
v 0.2660429 0.338295 0.1044097
v 0.2517428 0.2678003 0.1044663
v 0.2290546 0.1659349 0.1760043
v 0.4027008 0.2917801 0.2813163
v 0.3360286 0.3710648 0.1632376
v 0.2968444 0.362004 0.142863
v 0.3414941 0.3290166 0.211338
v 0.3168724 0.1937961 0.1596549
v 0.330926 0.2652086 0.2077914
v 0.2910056 0.1228642 0.246445
v 0.3198925 0.3053841 0.1972317
v 0.2096072 0.178624 0.08964431
v 0.2979352 0.1589347 0.1446239
v 0.1736877 0.2844525 0.06253785
v 0.1377597 0.1142459 0.06804681
v 0.1210283 0.1138457 0.06268084
v 0.1710022 0.08026686 0.1020391
v 0.2365551 0.081034 0.2102574
v 0.2225339 0.3063014 0.1319081
v 0.1288863 0.2098933 0.05060953
v 0.1158723 0.168275 0.0620631
v 0.1628549 0.2324318 0.1001043
v 0.2642943 0.1331191 0.1376408
v 0.209703 0.2009499 0.1318825
v 0.3014193 0.1536297 0.2445706
v 0.1712428 0.2008849 0.1126959
v 0.2218414 0.01251981 0.1547005
v 0.2834953 0.09859252 0.1531033
v 0.1166195 0.008648694 0.1084617
v 0.2360761 -0.06948578 0.2080438
v 0.2274066 -0.08367607 0.2137333
v 0.2801209 -0.03705412 0.2286196
v 0.3080103 0.07991931 0.267969
v 0.1207583 0.09534429 0.1203905
v 0.1537041 -0.05353245 0.1581284
v 0.179753 -0.06808287 0.1919274
v 0.1504403 0.01023304 0.164035
v 0.2863563 0.06393412 0.1783527
v 0.2002556 0.05031836 0.1743944
v 0.2821003 0.1695339 0.2237786
v 0.1801528 0.01315555 0.1822761
v 0.3604179 0.007458568 0.2675877
v 0.3243833 0.07446352 0.193939
v 0.3079762 -0.09109396 0.2951902
v 0.4318039 0.02499151 0.3336914
v 0.4381665 0.01869807 0.3488176
v 0.4283005 0.07797092 0.3092778
v 0.3446714 0.1641313 0.2693835
v 0.2380245 -0.04955572 0.2626805
v 0.3761846 -0.05516684 0.3372067
v 0.4002054 -0.02043086 0.3529878
v 0.321407 -0.03050852 0.3147801
v 0.3525694 0.08185236 0.2255282
v 0.31564 0.02148175 0.2765771
v 0.2597467 0.1485977 0.2128028
v 0.3343092 0.001631647 0.3098148
v 0.4338287 0.1704347 0.2722996
v 0.3640934 0.1198932 0.2106975
v 0.4833093 0.1230654 0.3646709
v 0.4544538 0.2671134 0.2713488
v 0.4620451 0.2794906 0.2812519
v 0.4107618 0.2663813 0.2325469
v 0.2958741 0.2172918 0.2125462
v 0.4122745 0.07184827 0.3621382
v 0.4888675 0.2072487 0.3403644
v 0.4725718 0.2453774 0.3226644
v 0.4394847 0.1665105 0.3440149
v 0.3714293 0.1621115 0.2139723

vn 0.3873701 -0.8376974 0.3849772
vn -0.5382986 -0.8020911 0.25862
vn 0.6198062 -0.2228006 0.7524627
vn 0.664761 -0.04511679 -0.7456924
vn 0.5446925 -0.5358601 -0.6451077
vn 0.6155479 0.7843797 0.07647917
vn 0.4786465 -0.01824787 -0.877818
vn -0.448809 0.6079355 -0.6549693
vn -0.4855117 -0.09620038 -0.868921
vn -0.8842723 -0.4412925 -0.1527194
vn 0.2732276 0.4852888 0.8305669
vn 0.2538339 0.9439996 -0.2107913
vn -0.4615021 0.8863202 0.03810624
vn -0.5534218 0.4900528 0.6734779
vn 0.1816721 -0.5081458 -0.8418925
vn 0.8777052 0.2143045 0.4286108
vn 0.3373567 -0.4298361 0.8375149
vn 0.4739693 0.8334231 0.2841811
vn 0.4687576 -0.1357849 -0.872828
vn 0.7973613 -0.3112689 -0.5170363
vn -0.3052058 0.7078998 -0.6369673
vn 0.3521374 -0.3338123 -0.8743961
vn -0.702297 -0.5238904 -0.4819936
vn -0.126846 -0.9459369 -0.2985188
vn 0.02549481 -0.898723 0.4377751
vn -0.3098831 0.9258874 0.2161132
vn -0.6179028 0.3393421 -0.7092552
vn -0.9921219 0.05658269 -0.1117695
vn -0.7667608 0.3098301 0.5622128
vn 0.5855091 -0.6631472 -0.4662777
vn 0.2843111 0.9165907 -0.2811201
vn 0.4788953 0.6474591 0.5928372
vn -0.4412753 0.7852924 -0.4342717
vn 0.4429321 -0.3777849 -0.8130742
vn 0.7447643 0.01334031 -0.6671941
vn -0.7051731 -0.3879015 -0.5935178
vn 0.5404353 -0.5201886 -0.6613119
vn 0.07332081 -0.9559832 0.2841131
vn 0.7302923 -0.6223481 0.2817019
vn 0.5493402 0.05086225 0.8340493
vn -0.9531375 0.2893359 -0.08839399
vn -0.5721611 -0.7606137 -0.3067548
vn -0.5961294 -0.667159 0.4466863
vn -0.7298539 0.03685333 0.6826091
vn 0.9112787 -0.204672 -0.3573239
vn -0.5727617 0.2986253 -0.7633917
vn -0.3092844 0.941009 -0.1372773
vn -0.8610905 -0.3006781 -0.4100192
vn 0.6229745 -0.4366811 -0.6490088
vn 0.4595889 -0.0106312 -0.8880681
vn -0.03161314 -0.9886636 0.1467821
vn 0.7833197 -0.3198112 -0.5330395
vn 0.8061662 -0.09120539 0.5846174
vn 0.9013675 0.4273771 0.06989583
vn 0.2027697 0.9444133 0.2587818
vn -0.7675799 -0.544673 0.3378641
vn 0.3278449 -0.835766 0.440469
vn 0.1792274 -0.2847173 0.9417078
vn -0.493705 0.04836731 0.8682833
vn 0.7087785 0.2336827 -0.6656016
vn -0.5090675 -0.7855843 -0.3517208
vn -0.9379445 0.04513766 -0.3438354
vn -0.2053064 -0.9237135 0.3234233
vn 0.7600724 -0.2310809 -0.6073645
vn 0.3359377 -0.3500558 -0.874418
vn 0.7846373 -0.2641537 0.5608628
vn 0.7451315 -0.00959455 -0.6668485
vn 0.4834726 0.8753493 0.004232449
vn 0.1499594 0.752554 -0.6412289
vn -0.6832516 0.6402446 -0.3510754
vn -0.00964456 -0.4235678 0.9058131
vn 0.8383378 0.2177433 0.4997775
vn 0.2624302 0.6753852 0.6891916
vn -0.3846641 0.32846 0.8626398
vn 0.2578567 0.04612549 -0.9650815

vt 0.5078291 0.5837369
vt 0.6278997 0.9220511
vt 0.5157793 0.4991454
vt 0.1157269 0.3109643
vt 0.3259433 0.755039
vt 0.4551909 0.02329975
vt 0.02328154 0.4199355
vt 0.0148041 0.4046
vt 0.02831212 0.5580361
vt 0.9420519 0.8599829
vt 0.5514394 0.2419364
vt 0.006947517 0.1891647
vt 0.9959934 0.2931502
vt 0.8917512 0.113011
vt 0.1829256 0.7833062
vt 0.5078291 0.5837369
vt 0.6278997 0.9220511
vt 0.5157793 0.4991454
vt 0.1157269 0.3109643
vt 0.3259433 0.755039
vt 0.4551909 0.02329975
vt 0.02328154 0.4199355
vt 0.0148041 0.4046
vt 0.02831212 0.5580361
vt 0.9420519 0.8599829
vt 0.5514394 0.2419364
vt 0.006947517 0.1891647
vt 0.9959934 0.2931502
vt 0.8917512 0.113011
vt 0.1829256 0.7833062
vt 0.5078291 0.5837369
vt 0.6278997 0.9220511
vt 0.5157793 0.4991454
vt 0.1157269 0.3109643
vt 0.3259433 0.755039
vt 0.4551909 0.02329975
vt 0.02328154 0.4199355
vt 0.0148041 0.4046
vt 0.02831212 0.5580361
vt 0.9420519 0.8599829
vt 0.5514394 0.2419364
vt 0.006947517 0.1891647
vt 0.9959934 0.2931502
vt 0.8917512 0.113011
vt 0.1829256 0.7833062
vt 0.5078291 0.5837369
vt 0.6278997 0.9220511
vt 0.5157793 0.4991454
vt 0.1157269 0.3109643
vt 0.3259433 0.755039
vt 0.4551909 0.02329975
vt 0.02328154 0.4199355
vt 0.0148041 0.4046
vt 0.02831212 0.5580361
vt 0.9420519 0.8599829
vt 0.5514394 0.2419364
vt 0.006947517 0.1891647
vt 0.9959934 0.2931502
vt 0.8917512 0.113011
vt 0.1829256 0.7833062
vt 0.5078291 0.5837369
vt 0.6278997 0.9220511
vt 0.5157793 0.4991454
vt 0.1157269 0.3109643
vt 0.3259433 0.755039
vt 0.4551909 0.02329975
vt 0.02328154 0.4199355
vt 0.0148041 0.4046
vt 0.02831212 0.5580361
vt 0.9420519 0.8599829
vt 0.5514394 0.2419364
vt 0.006947517 0.1891647
vt 0.9959934 0.2931502
vt 0.8917512 0.113011
vt 0.1829256 0.7833062

usemap StandardDA7E65
usemtl StandardDA7E65
f 48/48/48 47/47/47 46/46/46 
f 51/51/51 50/50/50 49/49/49 
f 54/54/54 53/53/53 52/52/52 
f 53/53/53 54/54/54 55/55/55 
f 48/48/48 50/50/50 51/51/51 
f 50/50/50 48/48/48 46/46/46 
f 48/48/48 51/51/51 56/56/56 
f 51/51/51 49/49/49 57/57/57 
f 47/47/47 50/50/50 46/46/46 
f 50/50/50 47/47/47 55/55/55 
f 55/55/55 59/59/59 58/58/58 
f 53/53/53 55/55/55 58/58/58 
f 50/50/50 54/54/54 52/52/52 
f 47/47/47 48/48/48 56/56/56 
f 55/55/55 47/47/47 56/56/56 
f 59/59/59 55/55/55 56/56/56 
f 51/51/51 59/59/59 56/56/56 
f 49/49/49 50/50/50 52/52/52 
f 59/59/59 51/51/51 57/57/57 
f 58/58/58 59/59/59 57/57/57 
f 53/53/53 58/58/58 57/57/57 
f 52/52/52 53/53/53 57/57/57 
f 49/49/49 52/52/52 57/57/57 
f 54/54/54 50/50/50 60/60/60 
f 55/55/55 54/54/54 60/60/60 
f 50/50/50 55/55/55 60/60/60 
f 63/63/63 62/62/62 61/61/61 
f 66/66/66 65/65/65 64/64/64 
f 69/69/69 68/68/68 67/67/67 
f 68/68/68 69/69/69 70/70/70 
f 63/63/63 65/65/65 66/66/66 
f 65/65/65 63/63/63 61/61/61 
f 63/63/63 66/66/66 71/71/71 
f 66/66/66 64/64/64 72/72/72 
f 62/62/62 65/65/65 61/61/61 
f 65/65/65 62/62/62 70/70/70 
f 70/70/70 74/74/74 73/73/73 
f 68/68/68 70/70/70 73/73/73 
f 65/65/65 69/69/69 67/67/67 
f 62/62/62 63/63/63 71/71/71 
f 70/70/70 62/62/62 71/71/71 
f 74/74/74 70/70/70 71/71/71 
f 66/66/66 74/74/74 71/71/71 
f 64/64/64 65/65/65 67/67/67 
f 74/74/74 66/66/66 72/72/72 
f 73/73/73 74/74/74 72/72/72 
f 68/68/68 73/73/73 72/72/72 
f 67/67/67 68/68/68 72/72/72 
f 64/64/64 67/67/67 72/72/72 
f 69/69/69 65/65/65 75/75/75 
f 70/70/70 69/69/69 75/75/75 
f 65/65/65 70/70/70 75/75/75 
f 78/78/78 77/77/77 76/76/76 
f 81/81/81 80/80/80 79/79/79 
f 84/84/84 83/83/83 82/82/82 
f 83/83/83 84/84/84 85/85/85 
f 78/78/78 80/80/80 81/81/81 
f 80/80/80 78/78/78 76/76/76 
f 78/78/78 81/81/81 86/86/86 
f 81/81/81 79/79/79 87/87/87 
f 77/77/77 80/80/80 76/76/76 
f 80/80/80 77/77/77 85/85/85 
f 85/85/85 89/89/89 88/88/88 
f 83/83/83 85/85/85 88/88/88 
f 80/80/80 84/84/84 82/82/82 
f 77/77/77 78/78/78 86/86/86 
f 85/85/85 77/77/77 86/86/86 
f 89/89/89 85/85/85 86/86/86 
f 81/81/81 89/89/89 86/86/86 
f 79/79/79 80/80/80 82/82/82 
f 89/89/89 81/81/81 87/87/87 
f 88/88/88 89/89/89 87/87/87 
f 83/83/83 88/88/88 87/87/87 
f 82/82/82 83/83/83 87/87/87 
f 79/79/79 82/82/82 87/87/87 
f 84/84/84 80/80/80 90/90/90 
f 85/85/85 84/84/84 90/90/90 
f 80/80/80 85/85/85 90/90/90 
f 93/93/93 92/92/92 91/91/91 
f 96/96/96 95/95/95 94/94/94 
f 99/99/99 98/98/98 97/97/97 
f 98/98/98 99/99/99 100/100/100 
f 93/93/93 95/95/95 96/96/96 
f 95/95/95 93/93/93 91/91/91 
f 93/93/93 96/96/96 101/101/101 
f 96/96/96 94/94/94 102/102/102 
f 92/92/92 95/95/95 91/91/91 
f 95/95/95 92/92/92 100/100/100 
f 100/100/100 104/104/104 103/103/103 
f 98/98/98 100/100/100 103/103/103 
f 95/95/95 99/99/99 97/97/97 
f 92/92/92 93/93/93 101/101/101 
f 100/100/100 92/92/92 101/101/101 
f 104/104/104 100/100/100 101/101/101 
f 96/96/96 104/104/104 101/101/101 
f 94/94/94 95/95/95 97/97/97 
f 104/104/104 96/96/96 102/102/102 
f 103/103/103 104/104/104 102/102/102 
f 98/98/98 103/103/103 102/102/102 
f 97/97/97 98/98/98 102/102/102 
f 94/94/94 97/97/97 102/102/102 
f 99/99/99 95/95/95 105/105/105 
f 100/100/100 99/99/99 105/105/105 
f 95/95/95 100/100/100 105/105/105 
f 108/108/108 107/107/107 106/106/106 
f 111/111/111 110/110/110 109/109/109 
f 114/114/114 113/113/113 112/112/112 
f 113/113/113 114/114/114 115/115/115 
f 108/108/108 110/110/110 111/111/111 
f 110/110/110 108/108/108 106/106/106 
f 108/108/108 111/111/111 116/116/116 
f 111/111/111 109/109/109 117/117/117 
f 107/107/107 110/110/110 106/106/106 
f 110/110/110 107/107/107 115/115/115 
f 115/115/115 119/119/119 118/118/118 
f 113/113/113 115/115/115 118/118/118 
f 110/110/110 114/114/114 112/112/112 
f 107/107/107 108/108/108 116/116/116 
f 115/115/115 107/107/107 116/116/116 
f 119/119/119 115/115/115 116/116/116 
f 111/111/111 119/119/119 116/116/116 
f 109/109/109 110/110/110 112/112/112 
f 119/119/119 111/111/111 117/117/117 
f 118/118/118 119/119/119 117/117/117 
f 113/113/113 118/118/118 117/117/117 
f 112/112/112 113/113/113 117/117/117 
f 109/109/109 112/112/112 117/117/117 
f 114/114/114 110/110/110 120/120/120 
f 115/115/115 114/114/114 120/120/120 
f 110/110/110 115/115/115 120/120/120 
